<svg width="32" height="32" viewBox="0 0 32 32" fill="none" xmlns="http://www.w3.org/2000/svg">
<path d="M13.55 23.19L25.8875 10.8525L23.4375 8.40247L13.55 18.29L8.5625 13.3025L6.1125 15.7525L13.55 23.19ZM3.75 31.59C2.7875 31.59 1.96354 31.2473 1.27813 30.5618C0.592708 29.8764 0.25 29.0525 0.25 28.09V3.58997C0.25 2.62747 0.592708 1.80351 1.27813 1.11809C1.96354 0.432674 2.7875 0.0899658 3.75 0.0899658H28.25C29.2125 0.0899658 30.0365 0.432674 30.7219 1.11809C31.4073 1.80351 31.75 2.62747 31.75 3.58997V28.09C31.75 29.0525 31.4073 29.8764 30.7219 30.5618C30.0365 31.2473 29.2125 31.59 28.25 31.59H3.75ZM3.75 28.09H28.25V3.58997H3.75V28.09Z" fill="#1C1B1F"/>
</svg>
