<svg width="42" height="43" viewBox="0 0 42 43" fill="none" xmlns="http://www.w3.org/2000/svg">
<mask id="mask0_403_1044" style="mask-type:alpha" maskUnits="userSpaceOnUse" x="0" y="0" width="42" height="43">
<rect y="0.84" width="42" height="42" fill="#D9D9D9"/>
</mask>
<g mask="url(#mask0_403_1044)">
<path d="M21.6562 37.59L19.087 35.3584C16.1044 32.7549 13.6385 30.5089 11.6895 28.6207C9.74039 26.7324 8.19 25.0372 7.03828 23.5352C5.88656 22.0331 5.08184 20.6527 4.6241 19.3938C4.16637 18.135 3.9375 16.8475 3.9375 15.5314C3.9375 12.842 4.86773 10.5961 6.7282 8.79368C8.58867 6.99123 10.9069 6.09 13.6828 6.09C15.2184 6.09 16.6802 6.40471 18.0682 7.03414C19.4562 7.66357 20.6522 8.55049 21.6562 9.69491C22.6603 8.55049 23.8563 7.66357 25.2443 7.03414C26.6323 6.40471 28.0941 6.09 29.6297 6.09C32.4056 6.09 34.7238 6.99123 36.5843 8.79368C38.4448 10.5961 39.375 12.842 39.375 15.5314C39.375 16.8475 39.1461 18.135 38.6884 19.3938C38.2307 20.6527 37.4259 22.0331 36.2742 23.5352C35.1225 25.0372 33.5721 26.7324 31.623 28.6207C29.674 30.5089 27.2081 32.7549 24.2255 35.3584L21.6562 37.59ZM21.6562 32.9551C24.4913 30.4946 26.8242 28.3846 28.6552 26.6251C30.4861 24.8655 31.9331 23.3349 32.9963 22.0331C34.0594 20.7313 34.7977 19.5726 35.2111 18.557C35.6245 17.5413 35.8313 16.5328 35.8313 15.5314C35.8313 13.8148 35.2406 12.3843 34.0594 11.2399C32.8781 10.0954 31.4016 9.52324 29.6297 9.52324C28.2417 9.52324 26.9571 9.90233 25.7759 10.6605C24.5946 11.4187 23.7825 12.3843 23.3395 13.5573H19.973C19.53 12.3843 18.7179 11.4187 17.5366 10.6605C16.3554 9.90233 15.0708 9.52324 13.6828 9.52324C11.9109 9.52324 10.4344 10.0954 9.25313 11.2399C8.07188 12.3843 7.48125 13.8148 7.48125 15.5314C7.48125 16.5328 7.68797 17.5413 8.10141 18.557C8.51484 19.5726 9.25313 20.7313 10.3163 22.0331C11.3794 23.3349 12.8264 24.8655 14.6573 26.6251C16.4883 28.3846 18.8212 30.4946 21.6562 32.9551Z" fill="white"/>
</g>
</svg>
