<svg width="27" height="28" viewBox="0 0 27 28" fill="none" xmlns="http://www.w3.org/2000/svg">
<path d="M3.87316 21.4716C3.31798 22.0296 2.39857 21.9992 1.95865 21.3465C1.50913 20.6796 1.1246 19.9691 0.805051 19.2151C0.48849 18.4681 0.244205 17.6955 0.0721953 16.8972C-0.100406 16.0963 0.546678 15.3863 1.36605 15.3863C2.05921 15.3863 2.63655 15.9013 2.79749 16.5755C2.93015 17.1312 3.10145 17.6694 3.31138 18.19C3.51639 18.699 3.75826 19.1837 4.03696 19.6444C4.38979 20.2275 4.35389 20.9885 3.87316 21.4716ZM1.38827 12.6994C0.566119 12.6994 -0.0729375 11.9735 0.112331 11.1725C0.295648 10.3799 0.537694 9.61265 0.838469 8.87068C1.14377 8.11754 1.51822 7.40783 1.96183 6.74157C2.39806 6.08639 3.31798 6.05612 3.87316 6.61409C4.35389 7.09723 4.3898 7.85823 4.03686 8.4413C3.75819 8.90166 3.51637 9.38602 3.31138 9.89437C3.0987 10.4223 2.92568 10.9681 2.7923 11.5318C2.63563 12.194 2.0687 12.6994 1.38827 12.6994ZM11.7995 25.9081C11.7995 26.7121 11.1024 27.3469 10.3167 27.1764C9.51873 27.0034 8.74891 26.7565 8.00724 26.436C7.27795 26.121 6.58417 25.7516 5.92589 25.3277C5.25095 24.8931 5.19359 23.9562 5.74973 23.3773C6.22762 22.8798 6.99716 22.8237 7.58535 23.1841C8.05803 23.4737 8.54397 23.7292 9.04319 23.9506C9.55259 24.1768 10.0837 24.3595 10.6365 24.4987C11.295 24.6645 11.7995 25.2291 11.7995 25.9081ZM7.65336 4.875C7.06155 5.24363 6.28165 5.20592 5.78987 4.71167C5.21549 4.1344 5.2658 3.18106 5.95143 2.74165C6.60211 2.32464 7.28738 1.96068 8.00724 1.64977C8.76213 1.32348 9.55512 1.07359 10.3862 0.90011C11.1719 0.736105 11.8663 1.37089 11.8663 2.1735C11.8663 2.85435 11.3595 3.4202 10.6982 3.58226C10.1277 3.72206 9.58141 3.90634 9.05923 4.1351C8.56936 4.34971 8.10074 4.59634 7.65336 4.875ZM12.0351 18.6838C11.0975 19.2896 9.86125 18.6165 9.86125 17.5001V10.5856C9.86125 9.46926 11.0975 8.79617 12.0351 9.40197L17.3862 12.8592C18.2455 13.4144 18.2455 14.6713 17.3862 15.2265L12.0351 18.6838ZM16.0314 27.1691C15.243 27.3383 14.5397 26.7048 14.5397 25.8985C14.5397 25.2243 15.0389 24.662 15.6941 24.5033C17.8796 23.9742 19.7285 22.8495 21.2407 21.1294C23.0113 19.1143 23.8967 16.7521 23.8967 14.0429C23.8967 11.3336 23.0113 8.97144 21.2407 6.9563C19.7285 5.23622 17.8796 4.11158 15.6941 3.58239C15.0389 3.42374 14.5397 2.8614 14.5397 2.18723C14.5397 1.38089 15.243 0.747451 16.0314 0.916633C18.8088 1.51264 21.1744 2.88773 23.1281 5.04192C25.4228 7.57203 26.5701 10.5724 26.5701 14.0429C26.5701 17.5134 25.4228 20.5137 23.1281 23.0438C21.1744 25.198 18.8088 26.5731 16.0314 27.1691Z" fill="white"/>
</svg>
