<svg width="42" height="43" viewBox="0 0 42 43" fill="none" xmlns="http://www.w3.org/2000/svg">
<mask id="mask0_403_1054" style="mask-type:alpha" maskUnits="userSpaceOnUse" x="0" y="0" width="42" height="43">
<path d="M0 0.84H42V42.84H0V0.84Z" fill="#D9D9D9"/>
</mask>
<g mask="url(#mask0_403_1054)">
<path d="M31.6167 34.09C28.2722 34.09 25.012 33.3446 21.8361 31.8539C18.6602 30.3631 15.8472 28.3928 13.3972 25.9428C10.9472 23.4928 8.97685 20.6798 7.48611 17.5039C5.99537 14.328 5.25 11.0678 5.25 7.72333C5.25 7.25667 5.40556 6.86778 5.71667 6.55667C6.02778 6.24556 6.41667 6.09 6.88333 6.09H13.1833C13.5463 6.09 13.8704 6.20667 14.1556 6.44C14.4407 6.67333 14.6093 6.97148 14.6611 7.33444L15.6722 12.7789C15.7241 13.1419 15.7176 13.4724 15.6528 13.7706C15.588 14.0687 15.4389 14.3344 15.2056 14.5678L11.4333 18.3789C12.5222 20.2456 13.8898 21.9956 15.5361 23.6289C17.1824 25.2622 18.9907 26.6752 20.9611 27.8678L24.6167 24.2122C24.85 23.9789 25.1546 23.8039 25.5306 23.6872C25.9065 23.5706 26.2759 23.5381 26.6389 23.59L32.0056 24.6789C32.3685 24.7567 32.6667 24.9317 32.9 25.2039C33.1333 25.4761 33.25 25.7937 33.25 26.1567V32.4567C33.25 32.9233 33.0944 33.3122 32.7833 33.6233C32.4722 33.9344 32.0833 34.09 31.6167 34.09ZM9.95556 15.4233L12.5222 12.8567L11.8611 9.20111H8.4C8.52963 10.2641 8.71111 11.3141 8.94444 12.3511C9.17778 13.3881 9.51481 14.4122 9.95556 15.4233ZM23.8778 29.3456C24.8889 29.7863 25.9194 30.1363 26.9694 30.3956C28.0194 30.6548 29.0759 30.8233 30.1389 30.9011V27.4789L26.4833 26.74L23.8778 29.3456Z" fill="#FFF81B"/>
</g>
</svg>
