<?xml version="1.0" encoding="utf-8"?><svg viewBox="0 0 42 43" xmlns="http://www.w3.org/2000/svg" xmlns:xlink="http://www.w3.org/1999/xlink"><style>:root>svg{display:none}:root>svg:target{display:block}</style><svg viewBox="0 0 24 25" id="arrow-down" xmlns="http://www.w3.org/2000/svg"><mask id="aa" maskUnits="userSpaceOnUse" x="0" y="0" width="24" height="25"><path d="M0 .84h24v24H0v-24z"/></mask><g mask="url(#aa)"><path d="M12 20.84l-8-8 1.4-1.425 5.6 5.6V4.84h2v12.175l5.6-5.6L20 12.84l-8 8z"/></g></svg><svg viewBox="0 0 17 17" id="arrow_outward" xmlns="http://www.w3.org/2000/svg"><mask id="ba" maskUnits="userSpaceOnUse" x="0" y="0" width="17" height="17"><path d="M.131.358h16.262V16.62H.131z"/></mask><g mask="url(#ba)"><path d="M4.467 12.216l-.948-.949 6.505-6.505H4.196V3.407h8.131v8.131h-1.355V5.711l-6.505 6.505z"/></g></svg><svg viewBox="0 0 42 43" id="burger" xmlns="http://www.w3.org/2000/svg"><rect x="3" y="9.84" width="35" height="3" rx="1.5"/><rect x="3" y="19.84" width="35" height="3" rx="1.5"/><rect x="3" y="30.84" width="19" height="2" rx="1"/></svg><svg viewBox="0 0 42 43" id="call" xmlns="http://www.w3.org/2000/svg"><mask id="da" maskUnits="userSpaceOnUse" x="0" y="0" width="42" height="43"><path d="M0 .84h42v42H0v-42z"/></mask><g mask="url(#da)"><path d="M31.617 34.09c-3.345 0-6.605-.745-9.78-2.236a29.661 29.661 0 01-8.44-5.911 29.66 29.66 0 01-5.91-8.44c-1.492-3.175-2.237-6.435-2.237-9.78 0-.466.156-.855.467-1.166.31-.311.7-.467 1.166-.467h6.3c.363 0 .687.117.973.35.285.233.453.531.505.894l1.011 5.445c.052.363.046.693-.02.992a1.592 1.592 0 01-.446.797l-3.773 3.81c1.09 1.868 2.457 3.618 4.103 5.25a28.997 28.997 0 005.425 4.24l3.656-3.656c.233-.233.538-.408.914-.525a2.511 2.511 0 011.108-.097l5.367 1.089c.362.078.66.253.894.525.233.272.35.59.35.953v6.3c0 .466-.156.855-.467 1.166-.31.311-.7.467-1.166.467zM9.956 15.423l2.566-2.566-.66-3.656H8.4a31.97 31.97 0 00.544 3.15 16.99 16.99 0 001.012 3.072zm13.922 13.923c1.01.44 2.041.79 3.091 1.05 1.05.259 2.107.427 3.17.505V27.48l-3.656-.739-2.605 2.606z"/></g></svg><svg viewBox="0 0 32 32" id="check_box_active" xmlns="http://www.w3.org/2000/svg"><path d="M13.55 23.19l12.337-12.338-2.45-2.45-9.887 9.888-4.988-4.987-2.45 2.45 7.438 7.437zm-9.8 8.4c-.962 0-1.786-.343-2.472-1.028C.593 29.876.25 29.052.25 28.09V3.59c0-.963.343-1.786 1.028-2.472C1.964.433 2.788.09 3.75.09h24.5c.962 0 1.787.343 2.472 1.028.685.686 1.028 1.51 1.028 2.472v24.5c0 .962-.343 1.786-1.028 2.472-.686.685-1.51 1.028-2.472 1.028H3.75zm0-3.5h24.5V3.59H3.75v24.5z"/></svg><svg viewBox="0 0 42 43" id="heart" xmlns="http://www.w3.org/2000/svg"><mask id="fa" maskUnits="userSpaceOnUse" x="0" y="0" width="42" height="43"><path d="M0 .84h42v42H0z"/></mask><g mask="url(#fa)"><path d="M21.656 37.59l-2.569-2.232c-2.983-2.603-5.448-4.85-7.397-6.737-1.95-1.889-3.5-3.584-4.652-5.086-1.151-1.502-1.956-2.882-2.414-4.141a11.221 11.221 0 01-.686-3.863c0-2.689.93-4.935 2.79-6.737 1.86-1.803 4.179-2.704 6.955-2.704 1.535 0 2.997.315 4.385.944a10.474 10.474 0 013.588 2.66 10.475 10.475 0 013.588-2.66 10.49 10.49 0 014.386-.944c2.776 0 5.094.901 6.954 2.704 1.86 1.802 2.791 4.048 2.791 6.737a11.22 11.22 0 01-.687 3.863c-.457 1.259-1.262 2.64-2.414 4.141-1.151 1.502-2.702 3.197-4.651 5.086-1.949 1.888-4.415 4.134-7.398 6.737l-2.569 2.232zm0-4.635c2.835-2.46 5.168-4.57 7-6.33 1.83-1.76 3.277-3.29 4.34-4.592 1.063-1.302 1.802-2.46 2.215-3.476.413-1.016.62-2.024.62-3.026 0-1.716-.59-3.147-1.772-4.291-1.18-1.145-2.657-1.717-4.43-1.717-1.387 0-2.672.38-3.853 1.138-1.181.758-1.994 1.723-2.436 2.896h-3.367c-.443-1.173-1.255-2.138-2.436-2.896a6.997 6.997 0 00-3.854-1.138c-1.772 0-3.249.572-4.43 1.717-1.181 1.144-1.772 2.575-1.772 4.291 0 1.002.207 2.01.62 3.026.414 1.016 1.152 2.174 2.215 3.476s2.51 2.832 4.341 4.592c1.831 1.76 4.164 3.87 7 6.33z"/></g></svg><svg viewBox="0 0 27 28" id="play" xmlns="http://www.w3.org/2000/svg"><path d="M3.873 21.472c-.555.558-1.474.527-1.914-.126a12.599 12.599 0 01-1.154-2.13 12.88 12.88 0 01-.733-2.319c-.172-.8.475-1.51 1.294-1.51.693 0 1.27.514 1.431 1.189.133.555.304 1.093.514 1.614.205.509.447.994.726 1.454.353.584.317 1.345-.164 1.828zm-2.485-8.773c-.822 0-1.46-.726-1.276-1.527.184-.792.426-1.56.726-2.301a11.89 11.89 0 011.124-2.13c.436-.655 1.356-.685 1.911-.127.48.483.517 1.244.164 1.827-.279.46-.52.945-.726 1.453a11.4 11.4 0 00-.519 1.638c-.156.662-.723 1.167-1.404 1.167zM11.8 25.91c0 .803-.698 1.438-1.483 1.267a12.466 12.466 0 01-2.31-.74 14.337 14.337 0 01-2.081-1.108c-.675-.435-.732-1.372-.176-1.95.478-.498 1.247-.554 1.835-.194.473.29.959.545 1.458.767.51.226 1.04.409 1.594.548.658.166 1.162.73 1.162 1.41zM7.652 4.874c-.591.369-1.371.33-1.863-.163-.575-.578-.524-1.53.161-1.97A14.34 14.34 0 018.007 1.65a12.328 12.328 0 012.38-.75c.785-.164 1.48.47 1.48 1.274 0 .68-.508 1.246-1.169 1.408-.57.14-1.117.324-1.639.553-.49.215-.958.461-1.406.74zm4.382 13.809A1.41 1.41 0 019.861 17.5v-6.914a1.41 1.41 0 012.174-1.184l5.351 3.457a1.41 1.41 0 010 2.367l-5.35 3.458zm3.996 8.485c-.788.17-1.491-.464-1.491-1.27 0-.675.499-1.237 1.154-1.396 2.186-.529 4.034-1.654 5.547-3.374 1.77-2.015 2.656-4.377 2.656-7.086 0-2.71-.886-5.072-2.656-7.087-1.512-1.72-3.361-2.844-5.547-3.374-.655-.158-1.154-.72-1.154-1.395 0-.806.703-1.44 1.491-1.27 2.778.596 5.143 1.97 7.097 4.125 2.295 2.53 3.442 5.53 3.442 9 0 3.471-1.147 6.472-3.442 9.002-1.954 2.154-4.32 3.53-7.097 4.125z"/></svg><svg viewBox="0 0 24 24" id="rating" xmlns="http://www.w3.org/2000/svg"><path d="M4 12h2v11H4zm7-9h2v20h-2zm6 0h2v20h-2V3z"/></svg></svg>